# xmcd CD database file
#
# Track frame offsets:
#	150
#	12426
#	32684
#	47168
#	64814
#	85920
#	107145
#	127093
#	147975
#	164744
#	183655
#	204689
#	217942
#	226614
#	247365
#	271160
#	288551
#	306398
#	325334
#	341709
#
# Disc length: 4772 seconds
#
# Revision: 0
# Processed by: cddbd v1.5.2PL0 Copyright (c) Steve Scherf et al.
# Submitted via: Feurio! 1.67 - http://www.feurio.com
#
DISCID=3e12a214
DTITLE=Tom Shaka - Delta Thunder - The Field Recordings
DYEAR=2012
DGENRE=Blues
TTITLE0=Tom's Barrelhouse Boogie
TTITLE1=Gamblin' Man
TTITLE2=Babyface
TTITLE3=Lemon Squeezer Blues
TTITLE4=Ramblin' On My Mind
TTITLE5=Goin' Down To The River
TTITLE6=Delta Thunder
TTITLE7=Mighty Powerful Wisdom (Tribute To Honeyboy Edwards)
TTITLE8=Tough Times
TTITLE9=M and O Blues
TTITLE10=Young And Wild Blues
TTITLE11=Walk Right In
TTITLE12=Ukulele Breakdown
TTITLE13=He Came From Behind The Sun (Tribute To Lousiana Red)
TTITLE14=Country Boy
TTITLE15=Malaguena
TTITLE16=They Don't Understand These Blues
TTITLE17=61 Highway Blues
TTITLE18=New World Order Blues
TTITLE19=Drinkin' And Stinkin'
EXTD=
EXTT0=
EXTT1=
EXTT2=
EXTT3=
EXTT4=
EXTT5=
EXTT6=
EXTT7=
EXTT8=
EXTT9=
EXTT10=
EXTT11=
EXTT12=
EXTT13=
EXTT14=
EXTT15=
EXTT16=
EXTT17=
EXTT18=
EXTT19=
PLAYORDER=
